<mxfile host="app.diagrams.net" agent="Mozilla/5.0 (Windows NT 10.0; Win64; x64) AppleWebKit/537.36 (KHTML, like Gecko) Chrome/133.0.0.0 Safari/537.36" version="25.0.3">
  <diagram name="Page-1" id="CMkwJR5GWGFab8m_Pvxb">
    <mxGraphModel dx="1050" dy="589" grid="1" gridSize="10" guides="1" tooltips="1" connect="1" arrows="1" fold="1" page="1" pageScale="1" pageWidth="1654" pageHeight="1169" math="0" shadow="0">
      <root>
        <mxCell id="0" />
        <mxCell id="1" parent="0" />
        <mxCell id="fiUv69cDBfmwDJIK94-b-11" style="edgeStyle=orthogonalEdgeStyle;rounded=0;orthogonalLoop=1;jettySize=auto;html=1;entryX=0;entryY=0.5;entryDx=0;entryDy=0;startArrow=classic;startFill=1;" edge="1" parent="1" source="fiUv69cDBfmwDJIK94-b-1" target="fiUv69cDBfmwDJIK94-b-2">
          <mxGeometry relative="1" as="geometry" />
        </mxCell>
        <mxCell id="fiUv69cDBfmwDJIK94-b-1" value="hashmap&lt;div&gt;&lt;br&gt;&lt;/div&gt;" style="rounded=0;whiteSpace=wrap;html=1;" vertex="1" parent="1">
          <mxGeometry x="220" y="200" width="120" height="60" as="geometry" />
        </mxCell>
        <mxCell id="fiUv69cDBfmwDJIK94-b-9" style="edgeStyle=orthogonalEdgeStyle;rounded=0;orthogonalLoop=1;jettySize=auto;html=1;" edge="1" parent="1" source="fiUv69cDBfmwDJIK94-b-2" target="fiUv69cDBfmwDJIK94-b-3">
          <mxGeometry relative="1" as="geometry" />
        </mxCell>
        <mxCell id="fiUv69cDBfmwDJIK94-b-10" value="get" style="edgeLabel;html=1;align=center;verticalAlign=middle;resizable=0;points=[];" vertex="1" connectable="0" parent="fiUv69cDBfmwDJIK94-b-9">
          <mxGeometry x="-0.2096" y="-1" relative="1" as="geometry">
            <mxPoint as="offset" />
          </mxGeometry>
        </mxCell>
        <mxCell id="fiUv69cDBfmwDJIK94-b-2" value="mvc" style="rounded=0;whiteSpace=wrap;html=1;" vertex="1" parent="1">
          <mxGeometry x="490" y="200" width="120" height="60" as="geometry" />
        </mxCell>
        <mxCell id="fiUv69cDBfmwDJIK94-b-5" style="edgeStyle=orthogonalEdgeStyle;rounded=0;orthogonalLoop=1;jettySize=auto;html=1;exitX=0.5;exitY=0;exitDx=0;exitDy=0;exitPerimeter=0;entryX=0.5;entryY=0;entryDx=0;entryDy=0;" edge="1" parent="1" source="fiUv69cDBfmwDJIK94-b-3" target="fiUv69cDBfmwDJIK94-b-2">
          <mxGeometry relative="1" as="geometry" />
        </mxCell>
        <mxCell id="fiUv69cDBfmwDJIK94-b-6" value="post" style="edgeLabel;html=1;align=center;verticalAlign=middle;resizable=0;points=[];" vertex="1" connectable="0" parent="fiUv69cDBfmwDJIK94-b-5">
          <mxGeometry x="0.1134" relative="1" as="geometry">
            <mxPoint as="offset" />
          </mxGeometry>
        </mxCell>
        <mxCell id="fiUv69cDBfmwDJIK94-b-12" style="edgeStyle=orthogonalEdgeStyle;rounded=0;orthogonalLoop=1;jettySize=auto;html=1;entryX=0.5;entryY=1;entryDx=0;entryDy=0;" edge="1" parent="1" source="fiUv69cDBfmwDJIK94-b-3" target="fiUv69cDBfmwDJIK94-b-2">
          <mxGeometry relative="1" as="geometry">
            <Array as="points">
              <mxPoint x="875" y="280" />
              <mxPoint x="550" y="280" />
            </Array>
          </mxGeometry>
        </mxCell>
        <mxCell id="fiUv69cDBfmwDJIK94-b-13" value="edit" style="edgeLabel;html=1;align=center;verticalAlign=middle;resizable=0;points=[];" vertex="1" connectable="0" parent="fiUv69cDBfmwDJIK94-b-12">
          <mxGeometry x="0.1244" y="-5" relative="1" as="geometry">
            <mxPoint as="offset" />
          </mxGeometry>
        </mxCell>
        <mxCell id="fiUv69cDBfmwDJIK94-b-3" value="Actor" style="shape=umlActor;verticalLabelPosition=bottom;verticalAlign=top;html=1;outlineConnect=0;" vertex="1" parent="1">
          <mxGeometry x="860" y="200" width="30" height="60" as="geometry" />
        </mxCell>
      </root>
    </mxGraphModel>
  </diagram>
</mxfile>
